# xmcd CD database file
#
# Track frame offsets:
#	150
#	16237
#	45262
#	76574
#	96486
#	124273
#	136760
#	168147
#	197847
#	224397
#	247647
#	285559
#
# Disc length: 4076 seconds
#
# Revision: 1
# Processed by: cddbd v1.5.2PL0 Copyright (c) Steve Scherf et al.
# Submitted via: CDex 1.51
#
DISCID=910fea0c
DTITLE=Bonnie Bowden - Live and Swingin'
DYEAR=2008
DGENRE=Jazz
TTITLE0=I Only Have Eyes For You
TTITLE1=How Long Has This Been Going On
TTITLE2=Pennies From Heaven
TTITLE3=Alright Okay, You Win
TTITLE4=Misty
TTITLE5=One Note Samba
TTITLE6=Roseroom - In A Mellow Tone
TTITLE7=Do Nothing Till You Hear From Me
TTITLE8=Angel Eyes
TTITLE9=Girl From Ipanema
TTITLE10=The Nearness Of You
TTITLE11=Yesterdays
EXTD=YEAR: 2008
EXTT0=
EXTT1=
EXTT2=
EXTT3=
EXTT4=
EXTT5=
EXTT6=
EXTT7=
EXTT8=
EXTT9=
EXTT10=
EXTT11=
PLAYORDER=
